<svg xmlns="http://www.w3.org/2000/svg" viewBox="0 0 541.08 413.73"><title>all-seeing-eye-logo</title><g id="Layer_1" data-name="Layer 1"><path d="M157,142.73c-.55,2.59-1,4.44-1.13,5.28,5.82-4.71,11.58-10.63,18.44-14.66,21-12.3,42.78-23,65.79-31.1,30.28-10.67,61.19-15.67,93.27-10.56C358.79,95.75,383,104,406.91,113.3c13.65,5.34,25.54,12,31.53,26.2,0,.1.3.1.84.24-.75-4.05-1.47-7.94-2.2-11.83l1.19-1,13.92,11.79c-.08-.57-.26-2-.58-4.41l38.86,22.77-13.24,11.5c.21-3.59.36-6.13.57-9.71-3.79,6.3-4.34,13.45-11.21,17.44V169c-1.73,9.34-8.5,14.05-15.87,18.65-19.37,12.1-40,21.17-62.21,26.37-1.19.28-2.42.41-4.36.74,16.9-25.3,8.06-49-1.94-73.67l18,7.38c-17.19-18.83-40.5-26.14-63.17-35L352,115.07a58.44,58.44,0,0,0-14.7-4.4c-8.56-1.2-17.27-1.39-25.76-2.88a16.33,16.33,0,0,1-9.42-5.57c-1.4-1.83,0-5.81.19-9.72-5.32,2.31-10.84,4.85-16.47,7.12-7.67,3.08-15.34,6.19-23.16,8.86-12.4,4.22-24.93,8.08-37.39,12.1-.83.27-1.64.63-2.46.94l-1-.94,6.8-11.94C221,111.75,217,118,213.59,125.46l-2-4.49c-3.09,5-6,10.43-9.54,15.39-9.84,13.84-12.13,28.52-5.73,44.39,1,2.42,2,4.82,3,7.23l-.65.46-8.52-9.2-1,.78,15.65,21.14c-12.71-5-24.36-9.86-36.16-14.31-6.39-2.41-12-5.64-16-11.31-.07-.1-.45,0-.86.06l1.5,3.73-1.07,1-14.24-9.9,1.17,3.51L106.6,160.31l26-7.48c.16,1,.27,1.71.22,1.41ZM437,155.37c.13,6.19,6.62,11.48,14,11.4,6.58-.08,11.61-4.4,11.51-9.9-.11-6.15-6.61-11.44-14-11.38C441.91,145.55,436.91,149.84,437,155.37Zm-283.94,5.31c.39-3.67-2.67-5.94-6-5.44-2,.28-5.22,3.29-5,4.48.47,2.34,3,4.26,5.59,7.53C150.23,164.27,152.87,162.61,153.08,160.68Z" transform="translate(-28.07 -41.69)"/><path d="M94.79,143.85a5.8,5.8,0,0,1,.22-5.14c4.47-6,8.93-12.09,14.11-17.47,24-24.89,53.89-39.78,86.49-49.71C241.07,57.68,287.53,54.69,334.55,60c37.34,4.22,73.19,13.9,106.62,31.52,22.79,12,43,27.26,59.25,47.45,1.12,1.38,2.13,4.1,1.51,5.4-1.75,3.69-4.38,7-6.77,10.56C456.89,129.27,417,107.51,373.91,92a349.83,349.83,0,0,1,90.33,35.64A3,3,0,0,0,463,126C397.8,84.15,327.23,64.42,249.65,74.79c-30.82,4.11-59.36,14.75-84.22,34-.66.51-1.28,1.07-2,1.55s-1.42.92-2.14,1.38c.3.32.59.65.88,1C197.4,90,236.61,82,277.56,80.52c-12.59,3.61-25.34,6.73-37.73,10.92-30.64,10.39-58.5,26.47-85.62,43.74-15.82,10.08-33,16.24-51.11,21.58C100.13,152.25,97.19,148.2,94.79,143.85Zm39.2-6.3c10.84-1.77,20.18-5.9,26.18-15.36l-.93-1Zm-7.85-6.31-1.5-2.38L110,138.3l1.32,2.08Z" transform="translate(-28.07 -41.69)"/><path d="M421,231.86c-8,4.81-15.93,9.62-24.73,14.95,5.9-1.87,11-3.38,16-5.09q15.36-5.22,30.63-10.68a9.1,9.1,0,0,0,4.38-2.94c10.49-15.77,20.83-31.66,31.54-48-4.6,4.3-8.76,8.13-12.85,12-28.25,26.94-60.37,47.36-99,55.25C312.81,258.41,260.64,252.29,211,227c-33-16.79-64.36-36.31-95.23-56.65a14.1,14.1,0,0,0-5.16-2.33c.71,1.19,1.38,2.4,2.14,3.56,13.76,21,27.46,42.14,41.39,63.07a47.45,47.45,0,0,0,8.92,9.95c34.69,29.1,74.73,45.65,119.72,50.19q72.21,7.26,135.67-28.14a28.78,28.78,0,0,0,8.89-8.28c5.62-7.84,10.68-16.09,15.95-24.18.14-.23.06-.61.11-1.34-9.47,5.55-18.66,11.06-28,16.38-23.57,13.45-48.21,24.21-75.26,28.37-38.53,5.92-75.81,1.27-111.21-15.15-17.9-8.3-35.16-18-52.25-28.12,23.6,10.28,47.59,19,72.88,23.86a252.31,252.31,0,0,0,77,2.71c-40.18.06-78.68-7.59-115.17-24.51C281.74,259.67,351.57,265.79,421,231.86Z" transform="translate(-28.07 -41.69)"/><path d="M254.09,214.91c-5.87-10.47-8.21-21.22-8.58-32.59V203.4c-8.17-17.54-7.24-34.79,2-51.44,9.93-17.82,25.86-25.87,45.74-24.34,26,2,39.71,18.38,45.86,42.46-.68-14.77-6.21-27.35-17.18-38.07,14.63,7.22,24.18,26.6,24.48,43.38.32,18.07-6.45,33.28-19.16,46.86,11-1,22-2,33-3.05,2.65-.26,5.28-1.2,7.9-1.12,7.95.25,11.12-4.68,13.68-11.19,12.27-31.23-1.72-65.79-33.59-82C325,113.07,300,110.63,274.39,113.2c-18.69,1.87-36.11,7.64-51.66,18.34-11.46,7.89-20.35,17.89-22.54,32.21-2.48,16.29,5,29,15.54,40.41a5.81,5.81,0,0,0,2.68,1.26q16.07,4.59,32.16,9.09A25.66,25.66,0,0,0,254.09,214.91Z" transform="translate(-28.07 -41.69)"/><path d="M87.92,133.59c4.53-5.46,8.65-10.92,13.28-15.9,23.76-25.58,53.33-42,86.28-52,85.21-25.92,169-22,250.38,15.14a189,189,0,0,1,68.51,52.39c.42.51.78,1.07,1.62,2.26,2.89-4.4,5.65-8.09,7.72-12.13.59-1.14-.41-3.67-1.44-5-15-19-33.65-33.59-54.62-45.37-26.5-14.87-54.93-24.52-84.59-30.74a26.8,26.8,0,0,0-5.45-.44c-51.17,0-102.33-.39-153.49.29-10.23.13-20.55,3.72-30.58,6.59C156.66,57,129.37,68.86,105.87,87.88c-9.51,7.7-17.54,17.21-26.29,25.86-2.31,2.29-2.16,4.32-.25,6.92C82.39,124.79,85.05,129.22,87.92,133.59Z" transform="translate(-28.07 -41.69)"/><path d="M168.8,257.16c6.23,9.5,11.72,18,17.34,26.33a9.15,9.15,0,0,0,3.15,2.38c68.08,39.23,138.22,42.51,210.24,11.87a11,11,0,0,0,4.52-3.61c4.26-6.15,8.26-12.49,12.79-19.42C331,315.27,248.86,310.59,168.8,257.16Z" transform="translate(-28.07 -41.69)"/><path d="M196.82,299.93c5.42,8.29,9.93,15.37,14.7,22.28.84,1.23,2.64,1.93,4.14,2.56,53.07,22,107,23.84,161.55,6.26a9.75,9.75,0,0,0,4.75-3.21c4-5.7,7.72-11.63,12.15-18.42C326.94,334.44,261.83,331.87,196.82,299.93Z" transform="translate(-28.07 -41.69)"/><path d="M217.53,331.58c4.87,7.45,8.87,13.76,13.12,19.9a8,8,0,0,0,4,2.54,225.32,225.32,0,0,0,125.16,3.7,8.09,8.09,0,0,0,4.39-2.77c3.82-5.44,7.33-11.1,11.49-17.52C322.33,353.38,270.28,351.8,217.53,331.58Z" transform="translate(-28.07 -41.69)"/><path d="M520.19,116.81c1.69-2.57,3.06-4.64,4.42-6.72,4.47-6.8,4.5-6.83-.76-12.7C501,71.88,472.44,55,441,42.45a8.07,8.07,0,0,0-2.89-.63c-12.61,0-25.22,0-38,.41C446.47,56.59,488.69,77.55,520.19,116.81Z" transform="translate(-28.07 -41.69)"/><path d="M185.92,41.81q-19.62,0-39.25,0a6.53,6.53,0,0,0-2.39.6C114.64,54.58,87.69,70.64,66.9,95.65c-.63.76-1.19,1.59-2,2.73l9,13.72C103,75.1,142.72,55.81,185.92,41.81Z" transform="translate(-28.07 -41.69)"/><path d="M356.27,367.23c-39.61,8.44-78,7.57-117.56-3.28,4.76,7.2,8.6,13.24,12.74,19.08.7,1,2.63,1.27,4.06,1.57a228.81,228.81,0,0,0,84.8,1.89c1.55-.25,3.57-.75,4.37-1.86C348.53,379.27,352,373.66,356.27,367.23Z" transform="translate(-28.07 -41.69)"/><path d="M275.32,181.12c-.09,12.83,9.2,22.74,21.42,22.86,12.85.12,23.36-10.77,23.39-24.23,0-12.54-9.75-22.75-21.77-22.72C285.76,157.06,275.42,167.88,275.32,181.12Z" transform="translate(-28.07 -41.69)"/><path d="M256.69,391.37c3.4,5.23,6.59,10.48,10.19,15.43a7.87,7.87,0,0,0,4.9,2.66,211.82,211.82,0,0,0,52.29.91,10.42,10.42,0,0,0,6.27-3.77c3.33-4.26,6-9,8.93-13.46-14,.58-27.8,1.82-41.53,1.53C284.16,394.38,270.62,392.56,256.69,391.37Z" transform="translate(-28.07 -41.69)"/><path d="M542.46,82.88C528,66.16,511.11,53.37,492.53,42.65a7.11,7.11,0,0,0-3.31-.82c-8.8-.06-17.6,0-26.65.44,26.75,13.64,51.19,30.2,71,53.91C536.59,91.66,539.41,87.45,542.46,82.88Z" transform="translate(-28.07 -41.69)"/><path d="M123.11,41.8c-8.92,0-17.85,0-26.77.06a7.81,7.81,0,0,0-3.67,1.29A175.39,175.39,0,0,0,54,74.37c-2.18,2.38-2.58,4.12-.52,6.74,2.35,3,4.27,6.31,6.63,9.86C77.55,69.87,99.22,54.76,123.11,41.8Z" transform="translate(-28.07 -41.69)"/><path d="M504.06,41.81l42.23,35.07,9.1-13.8c-8.15-6.88-16.1-13.63-24.11-20.31a4.65,4.65,0,0,0-2.74-.92C520.28,41.78,512,41.81,504.06,41.81Z" transform="translate(-28.07 -41.69)"/><path d="M321.63,419.1H274.79c3.4,5.15,6.73,10.36,10.28,15.43.52.75,2,1,3.07,1.15,2.14.26,4.31.28,6.46.41C311.85,437.14,314.08,435.77,321.63,419.1Z" transform="translate(-28.07 -41.69)"/><path d="M82.74,41.79c-7.33,0-14.44,0-21.56.05a5.22,5.22,0,0,0-3.18,1c-6.22,5.44-12.32,11-18.61,16.66l8.16,12.38Z" transform="translate(-28.07 -41.69)"/><path d="M559.72,56.43l9.43-14.36H544.28Z" transform="translate(-28.07 -41.69)"/><path d="M298.55,455.42l8.81-13.6H289.79Z" transform="translate(-28.07 -41.69)"/><path d="M28.07,42.17l7.17,11c1.84-2.07,3.41-3.87,5-5.63s3.15-3.35,5.05-5.36Z" transform="translate(-28.07 -41.69)"/></g></svg>